<svg xmlns="http://www.w3.org/2000/svg" viewBox="0 0 400 400" width="400" height="400"><path d="M0 0h400v400H0z"/><g fill="none" stroke="#FFF" stroke-width="24"><path d="M81 165a49.5 49.5 0 0 1 84-25M165 210a49.5 49.5 0 0 1-84-25M168 143l22 22M210 185l22 22M168 207l22-22M210 165l22-22"/><path d="M235 140a49.5 49.5 0 0 1 84 25M319 185a49.5 49.5 0 0 1-84 25" stroke-opacity=".4"/></g><text x="200" y="195" font-family="'Space Grotesk', 'Inter', sans-serif" font-size="36" font-weight="900" fill="#FFF" text-anchor="middle" letter-spacing="12" transform="translate(0 75)">
      CROSSLOOP
    </text></svg>